PathFileType	4	(X/Y/Z)	C:\Users\Biomechanik\SynologyDrive\AlexP\Athlete_03\Athlete_3_22_07_06\sq_70_EMG\marker_experimental.trc																																																																																																																																																																												
DataRate	CameraRate	NumFrames	NumMarkers	Units	OrigDataRate	OrigDataStartFrame	OrigNumFrames																																																																																																																																																																								
200	200	4	58	mm	200	1152	1537																																																																																																																																																																								
Frame#	Time	BL			BR			GLAB			RFHD			LFHD			C7			T6			SPINMOL			SPINM2			SPINM3			T12			BELTOL			BELT2			BELT3			SACROL			SACR2			SACR3			LTHOL			LTH2			LTH3			LSHAOL			LSHA2			LSHA3			LHEE			LTOE			LM5			RTHOL			RTH2			RTH3			RSHAOL			RSHA2			RSHA3			RHEE			RTOE			RM5			STRN			XIPH			LACR			LUAOL			LUA2			LUA3			LLAOL			LLA2			LLA3			LWRU			RACR			RUAOL			RUA3			RLAOL			RLA2			RLA3			RWRU			USERMO0			USERMO1			USERMO2			USERMO3			USERMO4			USERMO5		
		X1	Y1	Z1	X2	Y2	Z2	X3	Y3	Z3	X4	Y4	Z4	X5	Y5	Z5	X6	Y6	Z6	X7	Y7	Z7	X8	Y8	Z8	X9	Y9	Z9	X10	Y10	Z10	X11	Y11	Z11	X12	Y12	Z12	X13	Y13	Z13	X14	Y14	Z14	X15	Y15	Z15	X16	Y16	Z16	X17	Y17	Z17	X18	Y18	Z18	X19	Y19	Z19	X20	Y20	Z20	X21	Y21	Z21	X22	Y22	Z22	X23	Y23	Z23	X24	Y24	Z24	X25	Y25	Z25	X26	Y26	Z26	X27	Y27	Z27	X28	Y28	Z28	X29	Y29	Z29	X30	Y30	Z30	X31	Y31	Z31	X32	Y32	Z32	X33	Y33	Z33	X34	Y34	Z34	X35	Y35	Z35	X36	Y36	Z36	X37	Y37	Z37	X38	Y38	Z38	X39	Y39	Z39	X40	Y40	Z40	X41	Y41	Z41	X42	Y42	Z42	X43	Y43	Z43	X44	Y44	Z44	X45	Y45	Z45	X46	Y46	Z46	X47	Y47	Z47	X48	Y48	Z48	X49	Y49	Z49	X50	Y50	Z50	X51	Y51	Z51	X52	Y52	Z52	X53	Y53	Z53	X54	Y54	Z54	X55	Y55	Z55	X56	Y56	Z56	X57	Y57	Z57	X58	Y58	Z58
																																																																																																																																																																															
1153	5.76	100.8382645	1172.596069	-2261.248535	298.1656189	1157.066406	-47.53857803	513.9805298	1367.696533	-1157.952393	451.7919312	1375.622559	-1081.405151	450.8538818	1373.487549	-1238.046631	286.2699585	1264.858521	-1145.893555	145.3449249	1142.552246	-1146.700317	124.4119034	1123.044678	-1153.522339	85.88592529	1073.800171	-1103.540649	92.51051331	1069.911621	-1152.967163	75.1904068	1031.414917	-1152.791138	36.09072876	1027.92688	-1147.686401	1.30926621	978.7180176	-1095.248535	-4.707437038	980.9953003	-1145.036865	-48.20010757	904.7029419	-1175.407959	-36.97811508	911.4812622	-1125.975952	-81.62476349	863.6051636	-1135.820068	70.07044983	697.7147217	-1427.508545	55.01817703	619.3463745	-1435.626465	95.16886139	645.8852539	-1450.876709	135.7825165	326.7465515	-1554.114746	95.21718597	259.112793	-1549.045288	142.5673065	265.6292114	-1563.29895	72.28539276	42.19158173	-1496.695923	271.2037354	49.448349	-1555.718872	204.9383698	21.53624916	-1646.819336	71.88822937	663.9125366	-875.6456909	135.4729462	635.0028076	-837.1494141	93.50045013	611.0075684	-850.7258911	107.297966	322.7272339	-758.6672363	142.1134186	254.3357239	-738.8757935	96.93666077	261.6613464	-759.3665161	54.09457397	42.12283707	-820.7247925	247.7330475	46.02440262	-746.0186768	178.619339	36.50757599	-660.2113037	379.7525635	1122.106445	-1167.171387	349.0655823	962.1633301	-1164.749512	243.6604767	1204.098999	-1344.086548	119.4631042	1107.911987	-1370.725098	87.84420013	1062.287842	-1333.856934	89.78782654	1060.275391	-1384.453003	71.67733002	1031.129761	-1461.587646	112.5591049	1052.84375	-1507.49646	108.076973	1083.537476	-1468.001221	150.0137482	1133.664551	-1518.69751	289.4013672	1197.050537	-962.0170898	172.8441772	1088.331055	-914.7628784	118.3748703	1060.609497	-908.6435547	131.3522034	1051.742188	-832.0372314	174.5445404	1099.200073	-840.3449707	171.2648621	1081.158447	-792.3990479	204.0320587	1123.629272	-774.0393066	0.195662007	0.0475077	-0.271836996	0.173066005	0.174587995	-0.0971504	0.061853401	0.041329801	-0.126144007	0.084717803	0.230353996	-0.811954021	0.359510005	2.873270035	-0.324301004	2.920340061	0	0
1154	5.765	100.6970825	1176.318237	-2261.10376	297.7829895	1160.830566	-47.33833313	513.8462524	1371.411377	-1157.872803	451.6986084	1379.35791	-1081.30188	450.6975403	1377.232666	-1237.930908	285.8959961	1268.46814	-1145.772949	145.1662292	1145.618042	-1146.641968	124.2731934	1126.006104	-1153.454956	85.90515137	1076.592163	-1103.518433	92.49123383	1072.79834	-1152.957642	75.28874207	1034.145996	-1152.878174	36.17980957	1030.404907	-1147.857056	1.629247665	981.0253296	-1095.429932	-4.354914665	983.2478638	-1145.224854	-47.30270004	906.7710571	-1175.679443	-36.19648743	913.6187744	-1126.232666	-80.71229553	865.6340332	-1136.12439	70.98873138	698.831543	-1427.076904	55.48081207	620.5215454	-1434.848267	95.78527832	646.758667	-1450.230103	135.245697	326.9029846	-1553.161377	94.82029724	259.1701355	-1548.315674	142.1556702	265.8256836	-1562.542847	72.29550934	42.15220261	-1496.652466	271.2142639	49.44448471	-1555.683838	204.9506989	21.56936264	-1646.786621	71.74701691	665.1817017	-876.071167	135.0071106	635.6120605	-837.539917	92.89996338	611.9962769	-851.3586426	106.0911255	322.8352356	-759.3610229	141.1652679	254.6302185	-739.3428955	95.99081421	261.729187	-759.9136353	54.07437134	42.03821182	-820.7393188	247.7193298	46.04639816	-746.0101929	178.6057129	36.50035477	-660.2056274	379.6820068	1126.008301	-1167.042603	349.5602722	966.0327148	-1164.623657	243.4250793	1207.677612	-1343.961182	119.5027008	1111.142944	-1370.557251	88.05288696	1065.380615	-1333.724731	89.94077301	1063.438843	-1384.334473	71.84037018	1034.330078	-1461.496216	112.637001	1056.184814	-1507.419922	108.1105423	1086.824463	-1467.902954	149.8939972	1137.108276	-1518.593262	289.1472168	1200.678345	-961.8543091	172.8145447	1091.68396	-914.7185059	118.3997116	1063.790771	-908.6344604	131.3018036	1055.020996	-832.0019531	174.4048462	1102.574829	-840.2506714	171.1079407	1084.522949	-792.3131714	203.7994232	1127.072632	-773.8953857	0.196735993	0.0476369	-0.269461989	0.163718998	0.172986999	-0.095110901	0.060508799	0.0420072	-0.125172004	0.087671801	0.224150002	-0.801092982	0.354927003	2.871989965	-0.324077994	2.920269966	0	0
1155	5.77	100.5517654	1180.0271	-2260.959717	297.39328	1164.588989	-47.13928604	513.7141724	1375.102539	-1157.785156	451.6064758	1383.068115	-1081.191406	450.543396	1380.949707	-1237.807739	285.5264893	1272.05896	-1145.645996	144.986496	1148.659424	-1146.580811	124.1343307	1128.94043	-1153.384644	85.92350006	1079.356934	-1103.495361	92.47314453	1075.658081	-1152.946777	75.38996124	1036.851563	-1152.966064	36.279953	1032.852539	-1148.028687	1.959987998	983.3014526	-1095.614746	-3.988362551	985.4696045	-1145.416504	-46.38922119	908.821228	-1175.958862	-35.39559937	915.7345581	-1126.496948	-79.78347015	867.6443481	-1136.437622	71.91448975	699.9379272	-1426.634766	55.94264984	621.6929932	-1434.063232	96.40438843	647.6228027	-1449.570068	134.6964111	327.0566101	-1552.19397	94.41649628	259.2225647	-1547.57312	141.7336578	266.0210876	-1561.775879	72.30693817	42.11171722	-1496.606689	271.2254639	49.44050217	-1555.647827	204.9631042	21.60377693	-1646.75293	71.61793518	666.4386597	-876.5170288	134.5480804	636.2022095	-837.961731	92.3053894	612.973877	-852.017334	104.8834076	322.9382935	-760.085022	140.2157593	254.9243011	-739.8336792	95.04325104	261.7934265	-760.4840088	54.05544662	41.95153046	-820.7562256	247.7044373	46.06528091	-746.005127	178.5935822	36.49519348	-660.2022095	379.6055908	1129.883301	-1166.90564	350.0449829	969.8789063	-1164.491089	243.1929016	1211.237793	-1343.832031	119.5374527	1114.363647	-1370.390137	88.25395966	1068.46521	-1333.59436	90.09037781	1066.592651	-1384.216797	72.00447083	1037.519531	-1461.409058	112.7176285	1059.51355	-1507.345581	108.1437225	1090.10022	-1467.806519	149.7781067	1140.53772	-1518.489624	288.8916931	1204.286133	-961.6868286	172.7732544	1095.025635	-914.6656494	118.4153442	1066.963501	-908.6176758	131.2457733	1058.291626	-831.9589844	174.2608032	1105.939575	-840.151001	170.9490967	1087.877808	-792.2226562	203.5658417	1130.505493	-773.750061	0.197959006	0.048028801	-0.266882002	0.153705999	0.171158999	-0.093490496	0.059310101	0.0425984	-0.122960001	0.0908162	0.218437999	-0.79094398	0.351283014	2.870779991	-0.324492007	2.920109987	0	0
1156	5.775	100.4034729	1183.720093	-2260.817383	296.9974365	1168.338745	-46.94206619	513.5834961	1378.764771	-1157.687866	451.5141296	1386.749268	-1081.072754	450.391571	1384.633423	-1237.676147	285.159729	1275.627563	-1145.511597	144.804306	1151.671875	-1146.516357	123.9942017	1131.84314	-1153.310425	85.94034576	1082.089844	-1103.469971	92.45594025	1078.485718	-1152.93335	75.49417877	1039.526978	-1153.052856	36.39224243	1035.264893	-1148.198364	2.303068638	985.5413818	-1095.799561	-3.607055187	987.6560669	-1145.608521	-45.46114349	910.8479004	-1176.241577	-34.57638168	917.822876	-1126.764648	-78.83842468	869.6296997	-1136.754883	72.84241486	701.0322876	-1426.182495	56.39952469	622.8588867	-1433.270996	97.02119446	648.4765015	-1448.897217	134.1316833	327.2066345	-1551.213623	94.00307465	259.2690735	-1546.817627	141.2983246	266.2148743	-1560.998779	72.31959534	42.06986237	-1496.558838	271.2372742	49.43643188	-1555.610962	204.9755096	21.6395874	-1646.718384	71.50350189	667.6798096	-876.9819336	134.0986786	636.770813	-838.4135132	91.72016144	613.9373169	-852.7006836	103.6784134	323.035675	-760.8388672	139.2672729	255.2175446	-740.3467407	94.09725189	261.8537903	-761.0775146	54.03794479	41.86303329	-820.7753906	247.6883392	46.08082199	-746.0037231	178.5832672	36.4919548	-660.2012939	379.5217285	1133.727051	-1166.760132	350.5184021	973.6973877	-1164.352295	242.962677	1214.776611	-1343.698486	119.5648575	1117.572266	-1370.222046	88.44543457	1071.540161	-1333.463379	90.23391724	1069.735718	-1384.097656	72.16654205	1040.696289	-1461.324463	112.7981415	1062.827393	-1507.272217	108.1744385	1093.362793	-1467.711182	149.6649323	1143.949951	-1518.385986	288.6337585	1207.869995	-961.5142822	172.7164764	1098.354126	-914.604187	118.4176788	1070.127075	-908.59375	131.1811981	1061.552979	-831.90802	174.1104279	1109.291992	-840.0462036	170.7863464	1091.221069	-792.1275635	203.330368	1133.925049	-773.6033325	0.199129	0.048712399	-0.264607996	0.143528998	0.169176996	-0.092221797	0.058220301	0.042968601	-0.119576	0.093928903	0.213287994	-0.781665027	0.348774999	2.869600058	-0.325515002	2.919879913	0	0
